<?xml version="1.0" encoding="utf-8"?>
<!-- Generator: Adobe Illustrator 18.1.1, SVG Export Plug-In . SVG Version: 6.00 Build 0)  -->
<svg version="1.1" id="Capa_1" xmlns="http://www.w3.org/2000/svg" xmlns:xlink="http://www.w3.org/1999/xlink" x="0px" y="0px"
	 viewBox="0 91 612 612" enable-background="new 0 91 612 612" xml:space="preserve">
<g>
	<g id="_x34__4_">
		<g>
			<path fill="#CCCCCC" d="M606.2,669.7l-158-155.5c41.4-45,66.8-104.4,66.8-169.8C515,204.4,399.7,91,257.5,91S0,204.4,0,344.4
				s115.3,253.4,257.5,253.4c61.4,0,117.8-21.3,162.1-56.6l158.6,156.1c7.7,7.6,20.3,7.6,28,0C613.9,689.7,613.9,677.3,606.2,669.7z
				 M257.5,558.8c-120.3,0-217.9-96-217.9-214.4S137.2,130,257.5,130c120.3,0,217.9,96,217.9,214.4S377.8,558.8,257.5,558.8z"/>
		</g>
	</g>
</g>
</svg>
